<?xml version="1.0" encoding="utf-8"?>
<!-- Generator: Adobe Illustrator 16.0.0, SVG Export Plug-In . SVG Version: 6.00 Build 0)  -->
<!DOCTYPE svg PUBLIC "-//W3C//DTD SVG 1.1//EN" "http://www.w3.org/Graphics/SVG/1.1/DTD/svg11.dtd">
<svg version="1.1" id="Layer_1" xmlns="http://www.w3.org/2000/svg" xmlns:xlink="http://www.w3.org/1999/xlink" x="0px" y="0px"
	 width="1050.703px" height="748.5px" viewBox="35.703 64 1050.703 748.5" enable-background="new 35.703 64 1050.703 748.5"
	 xml:space="preserve">
<polyline fill="#767777" points="398.212,505.537 649.582,505.537 649.582,437.014 469.99,437.014 469.99,166.543 398.212,166.543 
	398.212,510.678 "/>
<polygon fill="#767777" points="88.958,505.61 267.882,169.638 446.736,505.61 "/>
<rect x="35.703" y="64" opacity="0.5" fill="#9BA8D6" enable-background="new    " width="1050.703" height="748.5"/>
<polyline fill="#767777" stroke="#FFFFFF" stroke-width="10.3238" stroke-miterlimit="10" points="414.673,490.717 666.044,490.717 
	666.044,422.193 486.533,422.193 486.533,151.709 414.673,151.709 414.673,495.857 "/>
<polygon fill="#767777" stroke="#FFFFFF" stroke-width="10.1999" stroke-miterlimit="10" points="113.964,490.735 292.845,154.722 
	471.648,490.735 "/>
<polygon fill="#8B8C8E" points="308.132,485.432 390.644,350 463.773,485.432 "/>
<polygon fill="#8B8C8E" points="481.283,197.646 419.785,301.189 419.785,157.083 481.283,157.083 "/>
<path fill="none" d="M481.283,199.712"/>
</svg>
