<?xml version="1.0" encoding="utf-8"?>
<!-- Generator: Adobe Illustrator 16.0.0, SVG Export Plug-In . SVG Version: 6.00 Build 0)  -->
<!DOCTYPE svg PUBLIC "-//W3C//DTD SVG 1.1//EN" "http://www.w3.org/Graphics/SVG/1.1/DTD/svg11.dtd">
<svg version="1.1" id="Layer_1" xmlns="http://www.w3.org/2000/svg" xmlns:xlink="http://www.w3.org/1999/xlink" x="0px" y="0px"
	 width="225.001px" height="225px" viewBox="-8 -8 225.001 225" enable-background="new -8 -8 225.001 225" xml:space="preserve">
<g>
	<circle fill="none" stroke="#707EBD" stroke-width="8" stroke-miterlimit="10" cx="104" cy="104" r="100"/>
	<path fill="none" stroke="#707EBD" stroke-width="2.6667" stroke-miterlimit="10" d="M156.622,181.635
		c-1.031,0.758-3.442-0.465-6.916-3.32c-3.478-2.854-8.015-7.349-13.304-13.133c-5.289-5.785-11.327-12.863-17.805-20.892
		c-6.48-8.026-13.395-17.005-20.434-26.589c-7.042-9.588-12.081-16.773-15.622-22.211c-3.539-5.44-5.581-9.13-6.612-11.725
		c-1.031-2.595-1.065-4.096-0.583-5.15c0.479-1.056,1.469-1.667,2.471-2.485c1.083-0.884,2.07-1.812,3.385-2.108
		c1.315-0.292,2.951,0.047,5.333,1.695c2.385,1.651,5.508,4.608,9.799,9.55c4.289,4.944,9.743,11.87,16.784,21.456
		c7.042,9.583,13.537,18.87,19.258,27.453c5.725,8.582,10.667,16.465,14.604,23.244c3.938,6.778,6.864,12.453,8.551,16.624
		C157.211,178.213,157.652,180.877,156.622,181.635z"/>
	<path fill="none" stroke="#707EBD" stroke-width="2.6667" stroke-miterlimit="10" d="M78.109,75.473
		c0-22.669-1.617-24.969-12.377-29.23c-7.617-1.973-26.188-2.234-26.188-7.324c0,24.072,17.773,38.221,37.153,38.221"/>
	<g enable-background="new    ">
		<path fill="#707EBD" stroke="#707EBD" stroke-width="0.5333" stroke-miterlimit="10" d="M45.159,56.995"/>
		<g>
			<g>
				<path fill="#707EBD" stroke="#707EBD" stroke-width="0.5333" stroke-miterlimit="10" d="M47.555,61.74
					c1.56-0.017,2.591-0.534,3.102-2.107c2.06-6.328,6.956,2.611,7.859,4.708c1.482,3.448,5.792,5.707,7.815,1.277
					c0.544-1.194-0.153-2.171-1.091-2.832c-1.542-1.09-3.156-1.509-4.365-3.115c-0.789-1.048-2.18-5.008-0.424-5.744
					c2.354-0.987,9.028-3.453,6.26-6.763c-0.552-0.662-1.492,0.288-0.945,0.944c1.359,1.624-5.635,4.521-6.221,4.766
					c-0.992,0.417-1.164,1.298-1.227,2.25c-0.292,4.435,2.692,7.012,6.25,8.816c0.831,1.414,0.38,2.353-1.354,2.824
					c-1.586-0.041-2.648-0.792-3.19-2.259c-0.609-1.031-0.93-2.463-1.43-3.586c-0.737-1.653-2.167-2.966-3.607-3.997
					c-0.974-0.699-2.872-1.181-3.961-0.445c-1.547,1.048-1.242,3.909-3.471,3.934C46.695,60.414,46.695,61.748,47.555,61.74
					L47.555,61.74z"/>
			</g>
		</g>
		
			<rect x="41.107" y="42.142" fill="#707EBD" stroke="#707EBD" stroke-width="0.5333" stroke-miterlimit="10" width="4.481" height="11"/>
		
			<rect x="43.68" y="44.142" fill="#707EBD" stroke="#707EBD" stroke-width="0.5333" stroke-miterlimit="10" width="6.547" height="14.655"/>
		
			<rect x="50.227" y="45.142" fill="#707EBD" stroke="#707EBD" stroke-width="0.5333" stroke-miterlimit="10" width="3.935" height="11.855"/>
		
			<rect x="53.271" y="45.542" fill="#707EBD" stroke="#707EBD" stroke-width="0.5333" stroke-miterlimit="10" width="3.932" height="11.855"/>
		
			<rect x="55.237" y="46.173" fill="#707EBD" stroke="#707EBD" stroke-width="0.5333" stroke-miterlimit="10" width="3.935" height="11.856"/>
		
			<rect x="57.305" y="45.419" fill="#707EBD" stroke="#707EBD" stroke-width="0.5333" stroke-miterlimit="10" width="8.487" height="4.445"/>
		
			<rect x="58.698" y="55.319" transform="matrix(0.7415 -0.671 0.671 0.7415 -25.6147 56.0169)" fill="#707EBD" stroke="#707EBD" stroke-width="0.5333" stroke-miterlimit="10" width="2.37" height="11.857"/>
		
			<rect x="62.432" y="63.435" fill="#707EBD" stroke="#707EBD" stroke-width="0.5333" stroke-miterlimit="10" width="3.201" height="3.181"/>
		
			<rect x="45.588" y="56.995" fill="#707EBD" stroke="#707EBD" stroke-width="0.5333" stroke-miterlimit="10" width="3.935" height="3.59"/>
		
			<rect x="59.271" y="49.656" fill="#707EBD" stroke="#707EBD" stroke-width="0.5333" stroke-miterlimit="10" width="5.602" height="1.812"/>
		
			<rect x="58.734" y="51.069" fill="#707EBD" stroke="#707EBD" stroke-width="0.5333" stroke-miterlimit="10" width="3.932" height="1.796"/>
		
			<rect x="59.159" y="61.928" fill="#707EBD" stroke="#707EBD" stroke-width="0.5333" stroke-miterlimit="10" width="3.083" height="3.008"/>
		
			<rect x="60.77" y="63.253" transform="matrix(0.7279 -0.6857 0.6857 0.7279 -27.8896 60.3615)" fill="#707EBD" stroke="#707EBD" stroke-width="0.5333" stroke-miterlimit="10" width="2.666" height="4.131"/>
	</g>
	
		<line fill="none" stroke="#707EBD" stroke-width="2.1333" stroke-miterlimit="10" x1="68.099" y1="167.555" x2="99.802" y2="119.463"/>
	<polyline fill="none" stroke="#707EBD" stroke-width="2.6667" stroke-miterlimit="10" points="108.438,131.409 79.604,175.143 
		62.812,164.073 95.651,114.256 	"/>
	<path fill="none" stroke="#707EBD" stroke-width="2.6667" stroke-miterlimit="10" d="M150.378,67.789"/>
	<path fill="none" stroke="#707EBD" stroke-width="2.6667" stroke-miterlimit="10" d="M133.586,56.717"/>
	
		<line fill="none" stroke="#707EBD" stroke-width="2.1333" stroke-miterlimit="10" x1="74.318" y1="171.659" x2="104" y2="126.633"/>
	<polyline fill="none" stroke="#707EBD" stroke-width="2.6667" stroke-miterlimit="10" points="79.091,175.918 72.273,186.262 
		55.482,175.188 62.299,164.846 	"/>
	<polygon fill="#707EBD" stroke="#707EBD" stroke-width="2.6667" stroke-miterlimit="10" points="148.314,45.651 158.247,37.584 
		154.747,49.891 	"/>
	<path fill="none" stroke="#707EBD" stroke-width="2.6667" stroke-miterlimit="10" d="M85.195,99.435
		c0-5.387,6.346-9.744,14.188-9.744"/>
	
		<line fill="none" stroke="#707EBD" stroke-width="2.1333" stroke-miterlimit="10" x1="115.111" y1="109.885" x2="145.434" y2="63.893"/>
	<polygon fill="none" stroke="#707EBD" stroke-width="2.6667" stroke-miterlimit="10" points="134.07,55.506 158.73,36.371 
		150.861,66.58 	"/>
	
		<line fill="none" stroke="#707EBD" stroke-width="2.6667" stroke-miterlimit="10" x1="105.975" y1="97.211" x2="133.031" y2="56.168"/>
	
		<line fill="none" stroke="#707EBD" stroke-width="2.6667" stroke-miterlimit="10" x1="119.646" y1="114.72" x2="150.8" y2="67.463"/>
	
		<line fill="none" stroke="#707EBD" stroke-width="2.1333" stroke-miterlimit="10" x1="110.062" y1="104" x2="139.839" y2="58.834"/>
</g>
<circle opacity="0.8" fill="#FCFCFC" enable-background="new    " cx="105" cy="104" r="95"/>
<rect x="7.629" y="49.325" fill="none" width="196.688" height="121.12"/>
<rect x="-8" y="-8" fill="none" width="225.001" height="225"/>
<text transform="matrix(1 0 0 1 54.1592 64.9355)" font-family="'Avenir-Light'" font-size="16">I love to make.</text>
<text transform="matrix(1 0 0 1 26.4551 84.1357)" font-family="'Avenir-Light'" font-size="16">If I’m not in the library </text>
<text transform="matrix(1 0 0 1 29.7031 103.3359)" font-family="'Avenir-Light'" font-size="16">or out exploring, you </text>
<text transform="matrix(1 0 0 1 28.5522 122.5361)" font-family="'Avenir-Light'" font-size="16">can probably find me </text>
<text transform="matrix(1 0 0 1 29.439 141.7363)" font-family="'Avenir-Light'" font-size="16">purging my thoughts </text>
<text transform="matrix(1 0 0 1 61.5752 160.9355)" font-family="'Avenir-Light'" font-size="16">onto canvas.</text>
</svg>
